<svg width="130" height="56" viewBox="0 0 130 56" fill="none" xmlns="http://www.w3.org/2000/svg">
<g filter="url(#filter0_d_93_12)">
<rect x="4" width="122" height="48" rx="5" fill="white"/>
</g>
<g filter="url(#filter1_dd_93_12)">
<path d="M50 46C50 44.3431 51.3431 43 53 43H77C78.6569 43 80 44.3431 80 46V48H50V46Z" fill="#48A1FF"/>
</g>
<path d="M52.5754 24.192C53.226 24.3733 53.738 24.704 54.1114 25.184C54.4847 25.6533 54.6714 26.2507 54.6714 26.976C54.6714 27.9467 54.3034 28.6933 53.5674 29.216C52.842 29.7387 51.7807 30 50.3834 30H45.0394V18.8H50.0634C51.3434 18.8 52.33 19.056 53.0234 19.568C53.7274 20.08 54.0794 20.7893 54.0794 21.696C54.0794 22.2827 53.9407 22.7893 53.6634 23.216C53.3967 23.6427 53.034 23.968 52.5754 24.192ZM46.6394 20.096V23.68H49.9194C50.7407 23.68 51.37 23.5307 51.8074 23.232C52.2554 22.9227 52.4794 22.4747 52.4794 21.888C52.4794 21.3013 52.2554 20.8587 51.8074 20.56C51.37 20.2507 50.7407 20.096 49.9194 20.096H46.6394ZM50.3194 28.704C51.226 28.704 51.9087 28.5547 52.3674 28.256C52.826 27.9573 53.0554 27.488 53.0554 26.848C53.0554 25.6 52.1434 24.976 50.3194 24.976H46.6394V28.704H50.3194ZM60.5568 30.096C59.7141 30.096 58.9568 29.9093 58.2848 29.536C57.6128 29.1627 57.0848 28.6507 56.7008 28C56.3274 27.3387 56.1408 26.592 56.1408 25.76C56.1408 24.928 56.3274 24.1867 56.7008 23.536C57.0848 22.8747 57.6128 22.3627 58.2848 22C58.9568 21.6267 59.7141 21.44 60.5568 21.44C61.3994 21.44 62.1514 21.6267 62.8128 22C63.4848 22.3627 64.0074 22.8747 64.3808 23.536C64.7648 24.1867 64.9568 24.928 64.9568 25.76C64.9568 26.592 64.7648 27.3387 64.3808 28C64.0074 28.6507 63.4848 29.1627 62.8128 29.536C62.1514 29.9093 61.3994 30.096 60.5568 30.096ZM60.5568 28.752C61.1008 28.752 61.5861 28.6293 62.0128 28.384C62.4501 28.128 62.7914 27.776 63.0368 27.328C63.2821 26.8693 63.4048 26.3467 63.4048 25.76C63.4048 25.1733 63.2821 24.656 63.0368 24.208C62.7914 23.7493 62.4501 23.3973 62.0128 23.152C61.5861 22.9067 61.1008 22.784 60.5568 22.784C60.0128 22.784 59.5221 22.9067 59.0848 23.152C58.6581 23.3973 58.3168 23.7493 58.0608 24.208C57.8154 24.656 57.6928 25.1733 57.6928 25.76C57.6928 26.3467 57.8154 26.8693 58.0608 27.328C58.3168 27.776 58.6581 28.128 59.0848 28.384C59.5221 28.6293 60.0128 28.752 60.5568 28.752ZM70.713 30.096C69.8703 30.096 69.113 29.9093 68.441 29.536C67.769 29.1627 67.241 28.6507 66.857 28C66.4837 27.3387 66.297 26.592 66.297 25.76C66.297 24.928 66.4837 24.1867 66.857 23.536C67.241 22.8747 67.769 22.3627 68.441 22C69.113 21.6267 69.8703 21.44 70.713 21.44C71.5557 21.44 72.3077 21.6267 72.969 22C73.641 22.3627 74.1637 22.8747 74.537 23.536C74.921 24.1867 75.113 24.928 75.113 25.76C75.113 26.592 74.921 27.3387 74.537 28C74.1637 28.6507 73.641 29.1627 72.969 29.536C72.3077 29.9093 71.5557 30.096 70.713 30.096ZM70.713 28.752C71.257 28.752 71.7423 28.6293 72.169 28.384C72.6063 28.128 72.9477 27.776 73.193 27.328C73.4383 26.8693 73.561 26.3467 73.561 25.76C73.561 25.1733 73.4383 24.656 73.193 24.208C72.9477 23.7493 72.6063 23.3973 72.169 23.152C71.7423 22.9067 71.257 22.784 70.713 22.784C70.169 22.784 69.6783 22.9067 69.241 23.152C68.8143 23.3973 68.473 23.7493 68.217 24.208C67.9717 24.656 67.849 25.1733 67.849 25.76C67.849 26.3467 67.9717 26.8693 68.217 27.328C68.473 27.776 68.8143 28.128 69.241 28.384C69.6783 28.6293 70.169 28.752 70.713 28.752ZM80.5333 26.048L78.7733 27.68V30H77.2373V18.128H78.7733V25.744L83.3973 21.52H85.2533L81.6853 25.024L85.6053 30H83.7173L80.5333 26.048Z" fill="black"/>
<defs>
<filter id="filter0_d_93_12" x="0" y="0" width="130" height="56" filterUnits="userSpaceOnUse" color-interpolation-filters="sRGB">
<feFlood flood-opacity="0" result="BackgroundImageFix"/>
<feColorMatrix in="SourceAlpha" type="matrix" values="0 0 0 0 0 0 0 0 0 0 0 0 0 0 0 0 0 0 127 0" result="hardAlpha"/>
<feOffset dy="4"/>
<feGaussianBlur stdDeviation="2"/>
<feComposite in2="hardAlpha" operator="out"/>
<feColorMatrix type="matrix" values="0 0 0 0 0 0 0 0 0 0 0 0 0 0 0 0 0 0 0.25 0"/>
<feBlend mode="normal" in2="BackgroundImageFix" result="effect1_dropShadow_93_12"/>
<feBlend mode="normal" in="SourceGraphic" in2="effect1_dropShadow_93_12" result="shape"/>
</filter>
<filter id="filter1_dd_93_12" x="45" y="38" width="40" height="15" filterUnits="userSpaceOnUse" color-interpolation-filters="sRGB">
<feFlood flood-opacity="0" result="BackgroundImageFix"/>
<feColorMatrix in="SourceAlpha" type="matrix" values="0 0 0 0 0 0 0 0 0 0 0 0 0 0 0 0 0 0 127 0" result="hardAlpha"/>
<feOffset dx="-1" dy="-1"/>
<feGaussianBlur stdDeviation="2"/>
<feComposite in2="hardAlpha" operator="out"/>
<feColorMatrix type="matrix" values="0 0 0 0 0.52549 0 0 0 0 0.756863 0 0 0 0 1 0 0 0 0.8 0"/>
<feBlend mode="normal" in2="BackgroundImageFix" result="effect1_dropShadow_93_12"/>
<feColorMatrix in="SourceAlpha" type="matrix" values="0 0 0 0 0 0 0 0 0 0 0 0 0 0 0 0 0 0 127 0" result="hardAlpha"/>
<feOffset dx="1" dy="1"/>
<feGaussianBlur stdDeviation="2"/>
<feComposite in2="hardAlpha" operator="out"/>
<feColorMatrix type="matrix" values="0 0 0 0 0.525 0 0 0 0 0.755155 0 0 0 0 1 0 0 0 0.8 0"/>
<feBlend mode="normal" in2="effect1_dropShadow_93_12" result="effect2_dropShadow_93_12"/>
<feBlend mode="normal" in="SourceGraphic" in2="effect2_dropShadow_93_12" result="shape"/>
</filter>
</defs>
</svg>
