<svg width="130" height="56" viewBox="0 0 130 56" fill="none" xmlns="http://www.w3.org/2000/svg">
<g filter="url(#filter0_d_93_6)">
<rect x="4" width="122" height="48" rx="5" fill="white"/>
</g>
<g filter="url(#filter1_dd_93_6)">
<path d="M50 46C50 44.3431 51.3431 43 53 43H77C78.6569 43 80 44.3431 80 46V48H50V46Z" fill="#48A1FF"/>
</g>
<path d="M25.7645 20.192V24.096H31.3805V25.472H25.7645V30H24.1645V18.8H32.0685V20.192H25.7645ZM36.8879 21.44C38.0612 21.44 38.9572 21.728 39.5759 22.304C40.2052 22.88 40.5199 23.7387 40.5199 24.88V30H39.0639V28.88C38.8079 29.2747 38.4399 29.5787 37.9599 29.792C37.4905 29.9947 36.9305 30.096 36.2799 30.096C35.3305 30.096 34.5679 29.8667 33.9919 29.408C33.4265 28.9493 33.1439 28.3467 33.1439 27.6C33.1439 26.8533 33.4159 26.256 33.9599 25.808C34.5039 25.3493 35.3679 25.12 36.5519 25.12H38.9839V24.816C38.9839 24.1547 38.7919 23.648 38.4079 23.296C38.0239 22.944 37.4585 22.768 36.7119 22.768C36.2105 22.768 35.7199 22.8533 35.2399 23.024C34.7599 23.184 34.3545 23.4027 34.0239 23.68L33.3839 22.528C33.8212 22.176 34.3439 21.9093 34.9519 21.728C35.5599 21.536 36.2052 21.44 36.8879 21.44ZM36.5359 28.912C37.1225 28.912 37.6292 28.784 38.0559 28.528C38.4825 28.2613 38.7919 27.888 38.9839 27.408V26.224H36.6159C35.3145 26.224 34.6639 26.6613 34.6639 27.536C34.6639 27.9627 34.8292 28.2987 35.1599 28.544C35.4905 28.7893 35.9492 28.912 36.5359 28.912ZM50.7101 21.52L46.9981 30H45.4301L41.7181 21.52H43.3181L46.2301 28.32L49.2061 21.52H50.7101ZM55.5412 30.096C54.6986 30.096 53.9412 29.9093 53.2692 29.536C52.5972 29.1627 52.0692 28.6507 51.6852 28C51.3119 27.3387 51.1252 26.592 51.1252 25.76C51.1252 24.928 51.3119 24.1867 51.6852 23.536C52.0692 22.8747 52.5972 22.3627 53.2692 22C53.9412 21.6267 54.6986 21.44 55.5412 21.44C56.3839 21.44 57.1359 21.6267 57.7972 22C58.4692 22.3627 58.9919 22.8747 59.3652 23.536C59.7492 24.1867 59.9412 24.928 59.9412 25.76C59.9412 26.592 59.7492 27.3387 59.3652 28C58.9919 28.6507 58.4692 29.1627 57.7972 29.536C57.1359 29.9093 56.3839 30.096 55.5412 30.096ZM55.5412 28.752C56.0852 28.752 56.5706 28.6293 56.9972 28.384C57.4346 28.128 57.7759 27.776 58.0212 27.328C58.2666 26.8693 58.3892 26.3467 58.3892 25.76C58.3892 25.1733 58.2666 24.656 58.0212 24.208C57.7759 23.7493 57.4346 23.3973 56.9972 23.152C56.5706 22.9067 56.0852 22.784 55.5412 22.784C54.9972 22.784 54.5066 22.9067 54.0692 23.152C53.6426 23.3973 53.3012 23.7493 53.0452 24.208C52.7999 24.656 52.6772 25.1733 52.6772 25.76C52.6772 26.3467 52.7999 26.8693 53.0452 27.328C53.3012 27.776 53.6426 28.128 54.0692 28.384C54.5066 28.6293 54.9972 28.752 55.5412 28.752ZM69.9695 21.52V30H68.5135V28.72C68.2042 29.1573 67.7935 29.4987 67.2815 29.744C66.7802 29.9787 66.2308 30.096 65.6335 30.096C64.5028 30.096 63.6122 29.7867 62.9615 29.168C62.3108 28.5387 61.9855 27.616 61.9855 26.4V21.52H63.5215V26.224C63.5215 27.0453 63.7188 27.6693 64.1135 28.096C64.5082 28.512 65.0735 28.72 65.8095 28.72C66.6202 28.72 67.2602 28.4747 67.7295 27.984C68.1988 27.4933 68.4335 26.8 68.4335 25.904V21.52H69.9695ZM74.3656 22.944C74.6323 22.4533 75.027 22.08 75.5496 21.824C76.0723 21.568 76.707 21.44 77.4536 21.44V22.928C77.3683 22.9173 77.251 22.912 77.1016 22.912C76.2696 22.912 75.6136 23.1627 75.1336 23.664C74.6643 24.1547 74.4296 24.8587 74.4296 25.776V30H72.8936V21.52H74.3656V22.944ZM79.3467 21.52H80.8827V30H79.3467V21.52ZM80.1147 19.888C79.8161 19.888 79.5654 19.792 79.3627 19.6C79.1707 19.408 79.0747 19.1733 79.0747 18.896C79.0747 18.6187 79.1707 18.384 79.3627 18.192C79.5654 17.9893 79.8161 17.888 80.1147 17.888C80.4134 17.888 80.6587 17.984 80.8507 18.176C81.0534 18.3573 81.1547 18.5867 81.1547 18.864C81.1547 19.152 81.0534 19.3973 80.8507 19.6C80.6587 19.792 80.4134 19.888 80.1147 19.888ZM88.5835 29.504C88.3595 29.696 88.0822 29.8453 87.7515 29.952C87.4208 30.048 87.0795 30.096 86.7275 30.096C85.8742 30.096 85.2128 29.8667 84.7435 29.408C84.2742 28.9493 84.0395 28.2933 84.0395 27.44V22.784H82.5995V21.52H84.0395V19.664H85.5755V21.52H88.0075V22.784H85.5755V27.376C85.5755 27.8347 85.6875 28.1867 85.9115 28.432C86.1462 28.6773 86.4768 28.8 86.9035 28.8C87.3728 28.8 87.7728 28.6667 88.1035 28.4L88.5835 29.504ZM97.8232 25.808C97.8232 25.9253 97.8126 26.08 97.7912 26.272H90.9112C91.0072 27.0187 91.3326 27.6213 91.8872 28.08C92.4526 28.528 93.1512 28.752 93.9832 28.752C94.9966 28.752 95.8126 28.4107 96.4312 27.728L97.2792 28.72C96.8952 29.168 96.4152 29.5093 95.8392 29.744C95.2739 29.9787 94.6392 30.096 93.9352 30.096C93.0392 30.096 92.2446 29.9147 91.5512 29.552C90.8579 29.1787 90.3192 28.6613 89.9352 28C89.5619 27.3387 89.3752 26.592 89.3752 25.76C89.3752 24.9387 89.5566 24.1973 89.9192 23.536C90.2926 22.8747 90.7992 22.3627 91.4392 22C92.0899 21.6267 92.8206 21.44 93.6312 21.44C94.4419 21.44 95.1619 21.6267 95.7912 22C96.4312 22.3627 96.9272 22.8747 97.2792 23.536C97.6419 24.1973 97.8232 24.9547 97.8232 25.808ZM93.6312 22.736C92.8952 22.736 92.2766 22.96 91.7752 23.408C91.2846 23.856 90.9966 24.4427 90.9112 25.168H96.3512C96.2659 24.4533 95.9726 23.872 95.4712 23.424C94.9806 22.9653 94.3672 22.736 93.6312 22.736ZM102.388 30.096C101.695 30.096 101.028 30.0053 100.388 29.824C99.7481 29.632 99.2468 29.392 98.8841 29.104L99.5241 27.888C99.8975 28.1547 100.351 28.368 100.884 28.528C101.417 28.688 101.956 28.768 102.5 28.768C103.844 28.768 104.516 28.384 104.516 27.616C104.516 27.36 104.425 27.1573 104.244 27.008C104.063 26.8587 103.833 26.752 103.556 26.688C103.289 26.6133 102.905 26.5333 102.404 26.448C101.721 26.3413 101.161 26.2187 100.724 26.08C100.297 25.9413 99.9295 25.7067 99.6201 25.376C99.3108 25.0453 99.1561 24.5813 99.1561 23.984C99.1561 23.216 99.4761 22.6027 100.116 22.144C100.756 21.6747 101.615 21.44 102.692 21.44C103.257 21.44 103.823 21.5093 104.388 21.648C104.953 21.7867 105.417 21.9733 105.78 22.208L105.124 23.424C104.431 22.976 103.615 22.752 102.676 22.752C102.025 22.752 101.529 22.8587 101.188 23.072C100.847 23.2853 100.676 23.568 100.676 23.92C100.676 24.1973 100.772 24.416 100.964 24.576C101.156 24.736 101.391 24.8533 101.668 24.928C101.956 25.0027 102.356 25.088 102.868 25.184C103.551 25.3013 104.1 25.4293 104.516 25.568C104.943 25.696 105.305 25.92 105.604 26.24C105.903 26.56 106.052 27.008 106.052 27.584C106.052 28.352 105.721 28.9653 105.06 29.424C104.409 29.872 103.519 30.096 102.388 30.096Z" fill="black"/>
<defs>
<filter id="filter0_d_93_6" x="0" y="0" width="130" height="56" filterUnits="userSpaceOnUse" color-interpolation-filters="sRGB">
<feFlood flood-opacity="0" result="BackgroundImageFix"/>
<feColorMatrix in="SourceAlpha" type="matrix" values="0 0 0 0 0 0 0 0 0 0 0 0 0 0 0 0 0 0 127 0" result="hardAlpha"/>
<feOffset dy="4"/>
<feGaussianBlur stdDeviation="2"/>
<feComposite in2="hardAlpha" operator="out"/>
<feColorMatrix type="matrix" values="0 0 0 0 0 0 0 0 0 0 0 0 0 0 0 0 0 0 0.25 0"/>
<feBlend mode="normal" in2="BackgroundImageFix" result="effect1_dropShadow_93_6"/>
<feBlend mode="normal" in="SourceGraphic" in2="effect1_dropShadow_93_6" result="shape"/>
</filter>
<filter id="filter1_dd_93_6" x="45" y="38" width="40" height="15" filterUnits="userSpaceOnUse" color-interpolation-filters="sRGB">
<feFlood flood-opacity="0" result="BackgroundImageFix"/>
<feColorMatrix in="SourceAlpha" type="matrix" values="0 0 0 0 0 0 0 0 0 0 0 0 0 0 0 0 0 0 127 0" result="hardAlpha"/>
<feOffset dx="-1" dy="-1"/>
<feGaussianBlur stdDeviation="2"/>
<feComposite in2="hardAlpha" operator="out"/>
<feColorMatrix type="matrix" values="0 0 0 0 0.52549 0 0 0 0 0.756863 0 0 0 0 1 0 0 0 0.8 0"/>
<feBlend mode="normal" in2="BackgroundImageFix" result="effect1_dropShadow_93_6"/>
<feColorMatrix in="SourceAlpha" type="matrix" values="0 0 0 0 0 0 0 0 0 0 0 0 0 0 0 0 0 0 127 0" result="hardAlpha"/>
<feOffset dx="1" dy="1"/>
<feGaussianBlur stdDeviation="2"/>
<feComposite in2="hardAlpha" operator="out"/>
<feColorMatrix type="matrix" values="0 0 0 0 0.525 0 0 0 0 0.755155 0 0 0 0 1 0 0 0 0.8 0"/>
<feBlend mode="normal" in2="effect1_dropShadow_93_6" result="effect2_dropShadow_93_6"/>
<feBlend mode="normal" in="SourceGraphic" in2="effect2_dropShadow_93_6" result="shape"/>
</filter>
</defs>
</svg>
