<svg width="130" height="56" viewBox="0 0 130 56" fill="none" xmlns="http://www.w3.org/2000/svg">
<g filter="url(#filter0_d_94_2)">
<rect x="4" width="122" height="48" rx="5" fill="white"/>
</g>
<g filter="url(#filter1_dd_94_2)">
<path d="M50 46C50 44.3431 51.3431 43 53 43H77C78.6569 43 80 44.3431 80 46V48H50V46Z" fill="#48A1FF"/>
</g>
<path d="M33.3957 31.024C33.033 31.4507 32.6117 31.776 32.1317 32C31.6517 32.224 31.1344 32.336 30.5797 32.336C29.8757 32.336 29.2144 32.1653 28.5957 31.824C27.9877 31.4933 27.289 30.9227 26.4997 30.112C25.4437 30.0587 24.489 29.776 23.6357 29.264C22.793 28.752 22.1317 28.0747 21.6517 27.232C21.1824 26.3787 20.9477 25.4347 20.9477 24.4C20.9477 23.3227 21.2037 22.3467 21.7157 21.472C22.2384 20.5973 22.953 19.9147 23.8597 19.424C24.7664 18.9227 25.785 18.672 26.9157 18.672C28.0357 18.672 29.049 18.9227 29.9557 19.424C30.8624 19.9147 31.5717 20.5973 32.0837 21.472C32.5957 22.336 32.8517 23.312 32.8517 24.4C32.8517 25.3173 32.665 26.16 32.2917 26.928C31.929 27.696 31.4117 28.3413 30.7397 28.864C30.0784 29.3867 29.3157 29.7493 28.4517 29.952C28.825 30.3467 29.1824 30.6293 29.5237 30.8C29.8757 30.9813 30.233 31.072 30.5957 31.072C31.385 31.072 32.0677 30.752 32.6437 30.112L33.3957 31.024ZM22.5477 24.4C22.5477 25.2107 22.7344 25.9467 23.1077 26.608C23.4917 27.2587 24.0144 27.7707 24.6757 28.144C25.3477 28.5173 26.0944 28.704 26.9157 28.704C27.7264 28.704 28.4624 28.5173 29.1237 28.144C29.785 27.7707 30.3024 27.2587 30.6757 26.608C31.0597 25.9467 31.2517 25.2107 31.2517 24.4C31.2517 23.5893 31.0597 22.8587 30.6757 22.208C30.3024 21.5467 29.785 21.0293 29.1237 20.656C28.4624 20.2827 27.7264 20.096 26.9157 20.096C26.0944 20.096 25.3477 20.2827 24.6757 20.656C24.0144 21.0293 23.4917 21.5467 23.1077 22.208C22.7344 22.8587 22.5477 23.5893 22.5477 24.4ZM42.9772 21.52V30H41.5212V28.72C41.2119 29.1573 40.8012 29.4987 40.2892 29.744C39.7879 29.9787 39.2385 30.096 38.6412 30.096C37.5105 30.096 36.6199 29.7867 35.9692 29.168C35.3185 28.5387 34.9932 27.616 34.9932 26.4V21.52H36.5292V26.224C36.5292 27.0453 36.7265 27.6693 37.1212 28.096C37.5159 28.512 38.0812 28.72 38.8172 28.72C39.6279 28.72 40.2679 28.4747 40.7372 27.984C41.2065 27.4933 41.4412 26.8 41.4412 25.904V21.52H42.9772ZM45.9013 21.52H47.4373V30H45.9013V21.52ZM46.6693 19.888C46.3706 19.888 46.12 19.792 45.9173 19.6C45.7253 19.408 45.6293 19.1733 45.6293 18.896C45.6293 18.6187 45.7253 18.384 45.9173 18.192C46.12 17.9893 46.3706 17.888 46.6693 17.888C46.968 17.888 47.2133 17.984 47.4053 18.176C47.608 18.3573 47.7093 18.5867 47.7093 18.864C47.7093 19.152 47.608 19.3973 47.4053 19.6C47.2133 19.792 46.968 19.888 46.6693 19.888ZM54.0661 30.096C53.2021 30.096 52.4287 29.9093 51.7461 29.536C51.0741 29.1627 50.5461 28.6507 50.1621 28C49.7781 27.3387 49.5861 26.592 49.5861 25.76C49.5861 24.928 49.7781 24.1867 50.1621 23.536C50.5461 22.8747 51.0741 22.3627 51.7461 22C52.4287 21.6267 53.2021 21.44 54.0661 21.44C54.8341 21.44 55.5167 21.5947 56.1141 21.904C56.7221 22.2133 57.1914 22.6613 57.5221 23.248L56.3541 24C56.0874 23.5947 55.7567 23.2907 55.3621 23.088C54.9674 22.8853 54.5301 22.784 54.0501 22.784C53.4954 22.784 52.9941 22.9067 52.5461 23.152C52.1087 23.3973 51.7621 23.7493 51.5061 24.208C51.2607 24.656 51.1381 25.1733 51.1381 25.76C51.1381 26.3573 51.2607 26.8853 51.5061 27.344C51.7621 27.792 52.1087 28.1387 52.5461 28.384C52.9941 28.6293 53.4954 28.752 54.0501 28.752C54.5301 28.752 54.9674 28.6507 55.3621 28.448C55.7567 28.2453 56.0874 27.9413 56.3541 27.536L57.5221 28.272C57.1914 28.8587 56.7221 29.312 56.1141 29.632C55.5167 29.9413 54.8341 30.096 54.0661 30.096ZM62.6973 26.048L60.9373 27.68V30H59.4013V18.128H60.9373V25.744L65.5613 21.52H67.4173L63.8493 25.024L67.7693 30H65.8813L62.6973 26.048ZM68.3417 24.944H72.6457V26.272H68.3417V24.944ZM78.8629 30.096C77.9989 30.096 77.2256 29.9093 76.5429 29.536C75.8709 29.1627 75.3429 28.6507 74.9589 28C74.5749 27.3387 74.3829 26.592 74.3829 25.76C74.3829 24.928 74.5749 24.1867 74.9589 23.536C75.3429 22.8747 75.8709 22.3627 76.5429 22C77.2256 21.6267 77.9989 21.44 78.8629 21.44C79.6309 21.44 80.3136 21.5947 80.9109 21.904C81.5189 22.2133 81.9883 22.6613 82.3189 23.248L81.1509 24C80.8843 23.5947 80.5536 23.2907 80.1589 23.088C79.7643 22.8853 79.3269 22.784 78.8469 22.784C78.2923 22.784 77.7909 22.9067 77.3429 23.152C76.9056 23.3973 76.5589 23.7493 76.3029 24.208C76.0576 24.656 75.9349 25.1733 75.9349 25.76C75.9349 26.3573 76.0576 26.8853 76.3029 27.344C76.5589 27.792 76.9056 28.1387 77.3429 28.384C77.7909 28.6293 78.2923 28.752 78.8469 28.752C79.3269 28.752 79.7643 28.6507 80.1589 28.448C80.5536 28.2453 80.8843 27.9413 81.1509 27.536L82.3189 28.272C81.9883 28.8587 81.5189 29.312 80.9109 29.632C80.3136 29.9413 79.6309 30.096 78.8629 30.096ZM88.7262 21.44C89.8035 21.44 90.6569 21.7547 91.2862 22.384C91.9262 23.0027 92.2462 23.9147 92.2462 25.12V30H90.7102V25.296C90.7102 24.4747 90.5129 23.856 90.1182 23.44C89.7235 23.024 89.1582 22.816 88.4222 22.816C87.5902 22.816 86.9342 23.0613 86.4542 23.552C85.9742 24.032 85.7342 24.7253 85.7342 25.632V30H84.1982V18.128H85.7342V22.72C86.0542 22.3147 86.4702 22 86.9822 21.776C87.5049 21.552 88.0862 21.44 88.7262 21.44ZM98.1768 21.44C99.3501 21.44 100.246 21.728 100.865 22.304C101.494 22.88 101.809 23.7387 101.809 24.88V30H100.353V28.88C100.097 29.2747 99.7288 29.5787 99.2488 29.792C98.7795 29.9947 98.2195 30.096 97.5688 30.096C96.6195 30.096 95.8568 29.8667 95.2808 29.408C94.7155 28.9493 94.4328 28.3467 94.4328 27.6C94.4328 26.8533 94.7048 26.256 95.2488 25.808C95.7928 25.3493 96.6568 25.12 97.8408 25.12H100.273V24.816C100.273 24.1547 100.081 23.648 99.6968 23.296C99.3128 22.944 98.7475 22.768 98.0008 22.768C97.4995 22.768 97.0088 22.8533 96.5288 23.024C96.0488 23.184 95.6435 23.4027 95.3128 23.68L94.6728 22.528C95.1101 22.176 95.6328 21.9093 96.2408 21.728C96.8488 21.536 97.4941 21.44 98.1768 21.44ZM97.8248 28.912C98.4115 28.912 98.9181 28.784 99.3448 28.528C99.7715 28.2613 100.081 27.888 100.273 27.408V26.224H97.9048C96.6035 26.224 95.9528 26.6613 95.9528 27.536C95.9528 27.9627 96.1181 28.2987 96.4488 28.544C96.7795 28.7893 97.2381 28.912 97.8248 28.912ZM109.419 29.504C109.195 29.696 108.918 29.8453 108.587 29.952C108.257 30.048 107.915 30.096 107.563 30.096C106.71 30.096 106.049 29.8667 105.579 29.408C105.11 28.9493 104.875 28.2933 104.875 27.44V22.784H103.435V21.52H104.875V19.664H106.411V21.52H108.843V22.784H106.411V27.376C106.411 27.8347 106.523 28.1867 106.747 28.432C106.982 28.6773 107.313 28.8 107.739 28.8C108.209 28.8 108.609 28.6667 108.939 28.4L109.419 29.504Z" fill="black"/>
<defs>
<filter id="filter0_d_94_2" x="0" y="0" width="130" height="56" filterUnits="userSpaceOnUse" color-interpolation-filters="sRGB">
<feFlood flood-opacity="0" result="BackgroundImageFix"/>
<feColorMatrix in="SourceAlpha" type="matrix" values="0 0 0 0 0 0 0 0 0 0 0 0 0 0 0 0 0 0 127 0" result="hardAlpha"/>
<feOffset dy="4"/>
<feGaussianBlur stdDeviation="2"/>
<feComposite in2="hardAlpha" operator="out"/>
<feColorMatrix type="matrix" values="0 0 0 0 0 0 0 0 0 0 0 0 0 0 0 0 0 0 0.25 0"/>
<feBlend mode="normal" in2="BackgroundImageFix" result="effect1_dropShadow_94_2"/>
<feBlend mode="normal" in="SourceGraphic" in2="effect1_dropShadow_94_2" result="shape"/>
</filter>
<filter id="filter1_dd_94_2" x="45" y="38" width="40" height="15" filterUnits="userSpaceOnUse" color-interpolation-filters="sRGB">
<feFlood flood-opacity="0" result="BackgroundImageFix"/>
<feColorMatrix in="SourceAlpha" type="matrix" values="0 0 0 0 0 0 0 0 0 0 0 0 0 0 0 0 0 0 127 0" result="hardAlpha"/>
<feOffset dx="-1" dy="-1"/>
<feGaussianBlur stdDeviation="2"/>
<feComposite in2="hardAlpha" operator="out"/>
<feColorMatrix type="matrix" values="0 0 0 0 0.52549 0 0 0 0 0.756863 0 0 0 0 1 0 0 0 0.8 0"/>
<feBlend mode="normal" in2="BackgroundImageFix" result="effect1_dropShadow_94_2"/>
<feColorMatrix in="SourceAlpha" type="matrix" values="0 0 0 0 0 0 0 0 0 0 0 0 0 0 0 0 0 0 127 0" result="hardAlpha"/>
<feOffset dx="1" dy="1"/>
<feGaussianBlur stdDeviation="2"/>
<feComposite in2="hardAlpha" operator="out"/>
<feColorMatrix type="matrix" values="0 0 0 0 0.525 0 0 0 0 0.755155 0 0 0 0 1 0 0 0 0.8 0"/>
<feBlend mode="normal" in2="effect1_dropShadow_94_2" result="effect2_dropShadow_94_2"/>
<feBlend mode="normal" in="SourceGraphic" in2="effect2_dropShadow_94_2" result="shape"/>
</filter>
</defs>
</svg>
