<svg width="41" height="13" viewBox="0 0 41 13" fill="none" xmlns="http://www.w3.org/2000/svg">
<path d="M7.57538 6.192C8.22604 6.37333 8.73804 6.704 9.11138 7.184C9.48471 7.65333 9.67138 8.25067 9.67138 8.976C9.67138 9.94667 9.30338 10.6933 8.56738 11.216C7.84204 11.7387 6.78071 12 5.38338 12H0.0393751V0.799999H5.06338C6.34338 0.799999 7.33004 1.056 8.02338 1.568C8.72738 2.08 9.07938 2.78933 9.07938 3.696C9.07938 4.28267 8.94071 4.78933 8.66338 5.216C8.39671 5.64267 8.03404 5.968 7.57538 6.192ZM1.63938 2.096V5.68H4.91938C5.74071 5.68 6.37004 5.53067 6.80737 5.232C7.25538 4.92267 7.47938 4.47467 7.47938 3.888C7.47938 3.30133 7.25538 2.85867 6.80737 2.56C6.37004 2.25067 5.74071 2.096 4.91938 2.096H1.63938ZM5.31938 10.704C6.22604 10.704 6.90871 10.5547 7.36738 10.256C7.82604 9.95733 8.05538 9.488 8.05538 8.848C8.05538 7.6 7.14338 6.976 5.31938 6.976H1.63938V10.704H5.31938ZM15.5568 12.096C14.7141 12.096 13.9568 11.9093 13.2848 11.536C12.6128 11.1627 12.0848 10.6507 11.7008 10C11.3274 9.33867 11.1408 8.592 11.1408 7.76C11.1408 6.928 11.3274 6.18667 11.7008 5.536C12.0848 4.87467 12.6128 4.36267 13.2848 4C13.9568 3.62667 14.7141 3.44 15.5568 3.44C16.3994 3.44 17.1514 3.62667 17.8128 4C18.4848 4.36267 19.0074 4.87467 19.3808 5.536C19.7648 6.18667 19.9568 6.928 19.9568 7.76C19.9568 8.592 19.7648 9.33867 19.3808 10C19.0074 10.6507 18.4848 11.1627 17.8128 11.536C17.1514 11.9093 16.3994 12.096 15.5568 12.096ZM15.5568 10.752C16.1008 10.752 16.5861 10.6293 17.0128 10.384C17.4501 10.128 17.7914 9.776 18.0368 9.328C18.2821 8.86933 18.4048 8.34667 18.4048 7.76C18.4048 7.17333 18.2821 6.656 18.0368 6.208C17.7914 5.74933 17.4501 5.39733 17.0128 5.152C16.5861 4.90667 16.1008 4.784 15.5568 4.784C15.0128 4.784 14.5221 4.90667 14.0848 5.152C13.6581 5.39733 13.3168 5.74933 13.0608 6.208C12.8154 6.656 12.6928 7.17333 12.6928 7.76C12.6928 8.34667 12.8154 8.86933 13.0608 9.328C13.3168 9.776 13.6581 10.128 14.0848 10.384C14.5221 10.6293 15.0128 10.752 15.5568 10.752ZM25.713 12.096C24.8703 12.096 24.113 11.9093 23.441 11.536C22.769 11.1627 22.241 10.6507 21.857 10C21.4837 9.33867 21.297 8.592 21.297 7.76C21.297 6.928 21.4837 6.18667 21.857 5.536C22.241 4.87467 22.769 4.36267 23.441 4C24.113 3.62667 24.8703 3.44 25.713 3.44C26.5557 3.44 27.3077 3.62667 27.969 4C28.641 4.36267 29.1637 4.87467 29.537 5.536C29.921 6.18667 30.113 6.928 30.113 7.76C30.113 8.592 29.921 9.33867 29.537 10C29.1637 10.6507 28.641 11.1627 27.969 11.536C27.3077 11.9093 26.5557 12.096 25.713 12.096ZM25.713 10.752C26.257 10.752 26.7423 10.6293 27.169 10.384C27.6063 10.128 27.9477 9.776 28.193 9.328C28.4383 8.86933 28.561 8.34667 28.561 7.76C28.561 7.17333 28.4383 6.656 28.193 6.208C27.9477 5.74933 27.6063 5.39733 27.169 5.152C26.7423 4.90667 26.257 4.784 25.713 4.784C25.169 4.784 24.6783 4.90667 24.241 5.152C23.8143 5.39733 23.473 5.74933 23.217 6.208C22.9717 6.656 22.849 7.17333 22.849 7.76C22.849 8.34667 22.9717 8.86933 23.217 9.328C23.473 9.776 23.8143 10.128 24.241 10.384C24.6783 10.6293 25.169 10.752 25.713 10.752ZM35.5333 8.048L33.7733 9.68V12H32.2373V0.127999H33.7733V7.744L38.3973 3.52H40.2533L36.6853 7.024L40.6053 12H38.7173L35.5333 8.048Z" fill="#BBBBBB"/>
</svg>
