<svg width="384" height="61" viewBox="0 0 384 61" fill="none" xmlns="http://www.w3.org/2000/svg">
<path d="M11.54 23.24C9.44 23.24 7.54 22.78 5.84 21.86C4.16 20.92 2.84 19.64 1.88 18.02C0.92 16.38 0.44 14.54 0.44 12.5C0.44 10.46 0.92 8.63 1.88 7.01C2.84 5.37 4.17 4.09 5.87 3.17C7.57 2.23 9.47 1.76 11.57 1.76C13.21 1.76 14.71 2.04 16.07 2.6C17.43 3.14 18.59 3.95 19.55 5.03L17.6 6.92C16.02 5.26 14.05 4.43 11.69 4.43C10.13 4.43 8.72 4.78 7.46 5.48C6.2 6.18 5.21 7.15 4.49 8.39C3.79 9.61 3.44 10.98 3.44 12.5C3.44 14.02 3.79 15.4 4.49 16.64C5.21 17.86 6.2 18.82 7.46 19.52C8.72 20.22 10.13 20.57 11.69 20.57C14.03 20.57 16 19.73 17.6 18.05L19.55 19.94C18.59 21.02 17.42 21.84 16.04 22.4C14.68 22.96 13.18 23.24 11.54 23.24ZM31.8997 6.95C33.9197 6.95 35.5197 7.54 36.6997 8.72C37.8997 9.88 38.4997 11.59 38.4997 13.85V23H35.6197V14.18C35.6197 12.64 35.2497 11.48 34.5097 10.7C33.7697 9.92 32.7097 9.53 31.3297 9.53C29.7697 9.53 28.5397 9.99 27.6397 10.91C26.7397 11.81 26.2897 13.11 26.2897 14.81V23H23.4097V0.739999H26.2897V9.35C26.8897 8.59 27.6697 8 28.6297 7.58C29.6097 7.16 30.6997 6.95 31.8997 6.95ZM49.6196 6.95C51.8196 6.95 53.4996 7.49 54.6596 8.57C55.8396 9.65 56.4296 11.26 56.4296 13.4V23H53.6996V20.9C53.2196 21.64 52.5296 22.21 51.6296 22.61C50.7496 22.99 49.6996 23.18 48.4796 23.18C46.6996 23.18 45.2696 22.75 44.1896 21.89C43.1296 21.03 42.5996 19.9 42.5996 18.5C42.5996 17.1 43.1096 15.98 44.1296 15.14C45.1496 14.28 46.7696 13.85 48.9896 13.85H53.5496V13.28C53.5496 12.04 53.1896 11.09 52.4696 10.43C51.7496 9.77 50.6896 9.44 49.2896 9.44C48.3496 9.44 47.4296 9.6 46.5296 9.92C45.6296 10.22 44.8696 10.63 44.2496 11.15L43.0496 8.99C43.8696 8.33 44.8496 7.83 45.9896 7.49C47.1296 7.13 48.3396 6.95 49.6196 6.95ZM48.9596 20.96C50.0596 20.96 51.0096 20.72 51.8096 20.24C52.6096 19.74 53.1896 19.04 53.5496 18.14V15.92H49.1096C46.6696 15.92 45.4496 16.74 45.4496 18.38C45.4496 19.18 45.7596 19.81 46.3796 20.27C46.9996 20.73 47.8596 20.96 48.9596 20.96ZM70.6993 22.07C70.2793 22.43 69.7593 22.71 69.1393 22.91C68.5193 23.09 67.8793 23.18 67.2193 23.18C65.6193 23.18 64.3793 22.75 63.4993 21.89C62.6193 21.03 62.1793 19.8 62.1793 18.2V9.47H59.4793V7.1H62.1793V3.62H65.0593V7.1H69.6193V9.47H65.0593V18.08C65.0593 18.94 65.2693 19.6 65.6893 20.06C66.1293 20.52 66.7493 20.75 67.5493 20.75C68.4293 20.75 69.1793 20.5 69.7993 20L70.6993 22.07ZM106.298 7.1L100.358 23H97.5978L93.0078 10.94L88.3578 23H85.5978L79.6878 7.1H82.4178L87.0378 19.76L91.8378 7.1H94.2678L98.9778 19.82L103.718 7.1H106.298ZM109.22 7.1H112.1V23H109.22V7.1ZM110.66 4.04C110.1 4.04 109.63 3.86 109.25 3.5C108.89 3.14 108.71 2.7 108.71 2.18C108.71 1.66 108.89 1.22 109.25 0.859999C109.63 0.479999 110.1 0.289999 110.66 0.289999C111.22 0.289999 111.68 0.469999 112.04 0.829999C112.42 1.17 112.61 1.6 112.61 2.12C112.61 2.66 112.42 3.12 112.04 3.5C111.68 3.86 111.22 4.04 110.66 4.04ZM126.539 22.07C126.119 22.43 125.599 22.71 124.979 22.91C124.359 23.09 123.719 23.18 123.059 23.18C121.459 23.18 120.219 22.75 119.339 21.89C118.459 21.03 118.019 19.8 118.019 18.2V9.47H115.319V7.1H118.019V3.62H120.899V7.1H125.459V9.47H120.899V18.08C120.899 18.94 121.109 19.6 121.529 20.06C121.969 20.52 122.589 20.75 123.389 20.75C124.269 20.75 125.019 20.5 125.639 20L126.539 22.07ZM138.511 6.95C140.531 6.95 142.131 7.54 143.311 8.72C144.511 9.88 145.111 11.59 145.111 13.85V23H142.231V14.18C142.231 12.64 141.861 11.48 141.121 10.7C140.381 9.92 139.321 9.53 137.941 9.53C136.381 9.53 135.151 9.99 134.251 10.91C133.351 11.81 132.901 13.11 132.901 14.81V23H130.021V0.739999H132.901V9.35C133.501 8.59 134.281 8 135.241 7.58C136.221 7.16 137.311 6.95 138.511 6.95ZM172.568 7.1L164.858 24.59C164.178 26.21 163.378 27.35 162.458 28.01C161.558 28.67 160.468 29 159.188 29C158.408 29 157.648 28.87 156.908 28.61C156.188 28.37 155.588 28.01 155.108 27.53L156.338 25.37C157.158 26.15 158.108 26.54 159.188 26.54C159.888 26.54 160.468 26.35 160.928 25.97C161.408 25.61 161.838 24.98 162.218 24.08L162.728 22.97L155.708 7.1H158.708L164.258 19.82L169.748 7.1H172.568ZM181.626 23.18C180.046 23.18 178.626 22.83 177.366 22.13C176.106 21.43 175.116 20.47 174.396 19.25C173.696 18.01 173.346 16.61 173.346 15.05C173.346 13.49 173.696 12.1 174.396 10.88C175.116 9.64 176.106 8.68 177.366 8C178.626 7.3 180.046 6.95 181.626 6.95C183.206 6.95 184.616 7.3 185.856 8C187.116 8.68 188.096 9.64 188.796 10.88C189.516 12.1 189.876 13.49 189.876 15.05C189.876 16.61 189.516 18.01 188.796 19.25C188.096 20.47 187.116 21.43 185.856 22.13C184.616 22.83 183.206 23.18 181.626 23.18ZM181.626 20.66C182.646 20.66 183.556 20.43 184.356 19.97C185.176 19.49 185.816 18.83 186.276 17.99C186.736 17.13 186.966 16.15 186.966 15.05C186.966 13.95 186.736 12.98 186.276 12.14C185.816 11.28 185.176 10.62 184.356 10.16C183.556 9.7 182.646 9.47 181.626 9.47C180.606 9.47 179.686 9.7 178.866 10.16C178.066 10.62 177.426 11.28 176.946 12.14C176.486 12.98 176.256 13.95 176.256 15.05C176.256 16.15 176.486 17.13 176.946 17.99C177.426 18.83 178.066 19.49 178.866 19.97C179.686 20.43 180.606 20.66 181.626 20.66ZM208.679 7.1V23H205.949V20.6C205.369 21.42 204.599 22.06 203.639 22.52C202.699 22.96 201.669 23.18 200.549 23.18C198.429 23.18 196.759 22.6 195.539 21.44C194.319 20.26 193.709 18.53 193.709 16.25V7.1H196.589V15.92C196.589 17.46 196.959 18.63 197.699 19.43C198.439 20.21 199.499 20.6 200.879 20.6C202.399 20.6 203.599 20.14 204.479 19.22C205.359 18.3 205.799 17 205.799 15.32V7.1H208.679ZM216.922 9.77C217.422 8.85 218.162 8.15 219.142 7.67C220.122 7.19 221.312 6.95 222.712 6.95V9.74C222.552 9.72 222.332 9.71 222.052 9.71C220.492 9.71 219.262 10.18 218.362 11.12C217.482 12.04 217.042 13.36 217.042 15.08V23H214.162V7.1H216.922V9.77ZM248.893 15.14C248.893 15.36 248.873 15.65 248.833 16.01H235.933C236.113 17.41 236.723 18.54 237.763 19.4C238.823 20.24 240.133 20.66 241.693 20.66C243.593 20.66 245.123 20.02 246.283 18.74L247.873 20.6C247.153 21.44 246.253 22.08 245.173 22.52C244.113 22.96 242.923 23.18 241.603 23.18C239.923 23.18 238.433 22.84 237.133 22.16C235.833 21.46 234.823 20.49 234.103 19.25C233.403 18.01 233.053 16.61 233.053 15.05C233.053 13.51 233.393 12.12 234.073 10.88C234.773 9.64 235.723 8.68 236.923 8C238.143 7.3 239.513 6.95 241.033 6.95C242.553 6.95 243.903 7.3 245.083 8C246.283 8.68 247.213 9.64 247.873 10.88C248.553 12.12 248.893 13.54 248.893 15.14ZM241.033 9.38C239.653 9.38 238.493 9.8 237.553 10.64C236.633 11.48 236.093 12.58 235.933 13.94H246.133C245.973 12.6 245.423 11.51 244.483 10.67C243.563 9.81 242.413 9.38 241.033 9.38ZM267.892 0.739999V23H265.132V20.48C264.492 21.36 263.682 22.03 262.702 22.49C261.722 22.95 260.642 23.18 259.462 23.18C257.922 23.18 256.542 22.84 255.322 22.16C254.102 21.48 253.142 20.53 252.442 19.31C251.762 18.07 251.422 16.65 251.422 15.05C251.422 13.45 251.762 12.04 252.442 10.82C253.142 9.6 254.102 8.65 255.322 7.97C256.542 7.29 257.922 6.95 259.462 6.95C260.602 6.95 261.652 7.17 262.612 7.61C263.572 8.03 264.372 8.66 265.012 9.5V0.739999H267.892ZM259.702 20.66C260.702 20.66 261.612 20.43 262.432 19.97C263.252 19.49 263.892 18.83 264.352 17.99C264.812 17.13 265.042 16.15 265.042 15.05C265.042 13.95 264.812 12.98 264.352 12.14C263.892 11.28 263.252 10.62 262.432 10.16C261.612 9.7 260.702 9.47 259.702 9.47C258.682 9.47 257.762 9.7 256.942 10.16C256.142 10.62 255.502 11.28 255.022 12.14C254.562 12.98 254.332 13.95 254.332 15.05C254.332 16.15 254.562 17.13 255.022 17.99C255.502 18.83 256.142 19.49 256.942 19.97C257.762 20.43 258.682 20.66 259.702 20.66ZM288.161 7.1V23H285.431V20.6C284.851 21.42 284.081 22.06 283.121 22.52C282.181 22.96 281.151 23.18 280.031 23.18C277.911 23.18 276.241 22.6 275.021 21.44C273.801 20.26 273.191 18.53 273.191 16.25V7.1H276.071V15.92C276.071 17.46 276.441 18.63 277.181 19.43C277.921 20.21 278.981 20.6 280.361 20.6C281.881 20.6 283.081 20.14 283.961 19.22C284.841 18.3 285.281 17 285.281 15.32V7.1H288.161ZM300.574 23.18C298.954 23.18 297.504 22.83 296.224 22.13C294.964 21.43 293.974 20.47 293.254 19.25C292.534 18.01 292.174 16.61 292.174 15.05C292.174 13.49 292.534 12.1 293.254 10.88C293.974 9.64 294.964 8.68 296.224 8C297.504 7.3 298.954 6.95 300.574 6.95C302.014 6.95 303.294 7.24 304.414 7.82C305.554 8.4 306.434 9.24 307.054 10.34L304.864 11.75C304.364 10.99 303.744 10.42 303.004 10.04C302.264 9.66 301.444 9.47 300.544 9.47C299.504 9.47 298.564 9.7 297.724 10.16C296.904 10.62 296.254 11.28 295.774 12.14C295.314 12.98 295.084 13.95 295.084 15.05C295.084 16.17 295.314 17.16 295.774 18.02C296.254 18.86 296.904 19.51 297.724 19.97C298.564 20.43 299.504 20.66 300.544 20.66C301.444 20.66 302.264 20.47 303.004 20.09C303.744 19.71 304.364 19.14 304.864 18.38L307.054 19.76C306.434 20.86 305.554 21.71 304.414 22.31C303.294 22.89 302.014 23.18 300.574 23.18ZM316.573 6.95C318.773 6.95 320.453 7.49 321.613 8.57C322.793 9.65 323.383 11.26 323.383 13.4V23H320.653V20.9C320.173 21.64 319.483 22.21 318.583 22.61C317.703 22.99 316.653 23.18 315.433 23.18C313.653 23.18 312.223 22.75 311.143 21.89C310.083 21.03 309.553 19.9 309.553 18.5C309.553 17.1 310.063 15.98 311.083 15.14C312.103 14.28 313.723 13.85 315.943 13.85H320.503V13.28C320.503 12.04 320.143 11.09 319.423 10.43C318.703 9.77 317.643 9.44 316.243 9.44C315.303 9.44 314.383 9.6 313.483 9.92C312.583 10.22 311.823 10.63 311.203 11.15L310.003 8.99C310.823 8.33 311.803 7.83 312.943 7.49C314.083 7.13 315.293 6.95 316.573 6.95ZM315.913 20.96C317.013 20.96 317.963 20.72 318.763 20.24C319.563 19.74 320.143 19.04 320.503 18.14V15.92H316.063C313.623 15.92 312.403 16.74 312.403 18.38C312.403 19.18 312.713 19.81 313.333 20.27C313.953 20.73 314.813 20.96 315.913 20.96ZM337.652 22.07C337.232 22.43 336.712 22.71 336.092 22.91C335.472 23.09 334.832 23.18 334.172 23.18C332.572 23.18 331.332 22.75 330.452 21.89C329.572 21.03 329.132 19.8 329.132 18.2V9.47H326.432V7.1H329.132V3.62H332.012V7.1H336.572V9.47H332.012V18.08C332.012 18.94 332.222 19.6 332.642 20.06C333.082 20.52 333.702 20.75 334.502 20.75C335.382 20.75 336.132 20.5 336.752 20L337.652 22.07ZM347.417 23.18C345.837 23.18 344.417 22.83 343.157 22.13C341.897 21.43 340.907 20.47 340.187 19.25C339.487 18.01 339.137 16.61 339.137 15.05C339.137 13.49 339.487 12.1 340.187 10.88C340.907 9.64 341.897 8.68 343.157 8C344.417 7.3 345.837 6.95 347.417 6.95C348.997 6.95 350.407 7.3 351.647 8C352.907 8.68 353.887 9.64 354.587 10.88C355.307 12.1 355.667 13.49 355.667 15.05C355.667 16.61 355.307 18.01 354.587 19.25C353.887 20.47 352.907 21.43 351.647 22.13C350.407 22.83 348.997 23.18 347.417 23.18ZM347.417 20.66C348.437 20.66 349.347 20.43 350.147 19.97C350.967 19.49 351.607 18.83 352.067 17.99C352.527 17.13 352.757 16.15 352.757 15.05C352.757 13.95 352.527 12.98 352.067 12.14C351.607 11.28 350.967 10.62 350.147 10.16C349.347 9.7 348.437 9.47 347.417 9.47C346.397 9.47 345.477 9.7 344.657 10.16C343.857 10.62 343.217 11.28 342.737 12.14C342.277 12.98 342.047 13.95 342.047 15.05C342.047 16.15 342.277 17.13 342.737 17.99C343.217 18.83 343.857 19.49 344.657 19.97C345.477 20.43 346.397 20.66 347.417 20.66ZM362.41 9.77C362.91 8.85 363.65 8.15 364.63 7.67C365.61 7.19 366.8 6.95 368.2 6.95V9.74C368.04 9.72 367.82 9.71 367.54 9.71C365.98 9.71 364.75 10.18 363.85 11.12C362.97 12.04 362.53 13.36 362.53 15.08V23H359.65V7.1H362.41V9.77ZM376.427 23.18C375.127 23.18 373.877 23.01 372.677 22.67C371.477 22.31 370.537 21.86 369.857 21.32L371.057 19.04C371.757 19.54 372.607 19.94 373.607 20.24C374.607 20.54 375.617 20.69 376.637 20.69C379.157 20.69 380.417 19.97 380.417 18.53C380.417 18.05 380.247 17.67 379.907 17.39C379.567 17.11 379.137 16.91 378.617 16.79C378.117 16.65 377.397 16.5 376.457 16.34C375.177 16.14 374.127 15.91 373.307 15.65C372.507 15.39 371.817 14.95 371.237 14.33C370.657 13.71 370.367 12.84 370.367 11.72C370.367 10.28 370.967 9.13 372.167 8.27C373.367 7.39 374.977 6.95 376.997 6.95C378.057 6.95 379.117 7.08 380.177 7.34C381.237 7.6 382.107 7.95 382.787 8.39L381.557 10.67C380.257 9.83 378.727 9.41 376.967 9.41C375.747 9.41 374.817 9.61 374.177 10.01C373.537 10.41 373.217 10.94 373.217 11.6C373.217 12.12 373.397 12.53 373.757 12.83C374.117 13.13 374.557 13.35 375.077 13.49C375.617 13.63 376.367 13.79 377.327 13.97C378.607 14.19 379.637 14.43 380.417 14.69C381.217 14.93 381.897 15.35 382.457 15.95C383.017 16.55 383.297 17.39 383.297 18.47C383.297 19.91 382.677 21.06 381.437 21.92C380.217 22.76 378.547 23.18 376.427 23.18ZM10.22 43.95C12.24 43.95 13.84 44.54 15.02 45.72C16.22 46.88 16.82 48.59 16.82 50.85V60H13.94V51.18C13.94 49.64 13.57 48.48 12.83 47.7C12.09 46.92 11.03 46.53 9.65 46.53C8.09 46.53 6.86 46.99 5.96 47.91C5.06 48.81 4.61 50.11 4.61 51.81V60H1.73V37.74H4.61V46.35C5.21 45.59 5.99 45 6.95 44.58C7.93 44.16 9.02 43.95 10.22 43.95ZM36.6078 52.14C36.6078 52.36 36.5878 52.65 36.5478 53.01H23.6478C23.8278 54.41 24.4378 55.54 25.4778 56.4C26.5378 57.24 27.8478 57.66 29.4078 57.66C31.3078 57.66 32.8378 57.02 33.9978 55.74L35.5878 57.6C34.8678 58.44 33.9678 59.08 32.8878 59.52C31.8278 59.96 30.6378 60.18 29.3178 60.18C27.6378 60.18 26.1478 59.84 24.8478 59.16C23.5478 58.46 22.5378 57.49 21.8178 56.25C21.1178 55.01 20.7678 53.61 20.7678 52.05C20.7678 50.51 21.1078 49.12 21.7878 47.88C22.4878 46.64 23.4378 45.68 24.6378 45C25.8578 44.3 27.2278 43.95 28.7478 43.95C30.2678 43.95 31.6178 44.3 32.7978 45C33.9978 45.68 34.9278 46.64 35.5878 47.88C36.2678 49.12 36.6078 50.54 36.6078 52.14ZM28.7478 46.38C27.3678 46.38 26.2078 46.8 25.2678 47.64C24.3478 48.48 23.8078 49.58 23.6478 50.94H33.8478C33.6878 49.6 33.1378 48.51 32.1978 47.67C31.2778 46.81 30.1278 46.38 28.7478 46.38ZM43.367 46.77C43.867 45.85 44.607 45.15 45.587 44.67C46.567 44.19 47.757 43.95 49.157 43.95V46.74C48.997 46.72 48.777 46.71 48.497 46.71C46.937 46.71 45.707 47.18 44.807 48.12C43.927 49.04 43.487 50.36 43.487 52.08V60H40.607V44.1H43.367V46.77ZM66.9301 52.14C66.9301 52.36 66.9101 52.65 66.8701 53.01H53.9701C54.1501 54.41 54.7601 55.54 55.8001 56.4C56.8601 57.24 58.1701 57.66 59.7301 57.66C61.6301 57.66 63.1601 57.02 64.3201 55.74L65.9101 57.6C65.1901 58.44 64.2901 59.08 63.2101 59.52C62.1501 59.96 60.9601 60.18 59.6401 60.18C57.9601 60.18 56.4701 59.84 55.1701 59.16C53.8701 58.46 52.8601 57.49 52.1401 56.25C51.4401 55.01 51.0901 53.61 51.0901 52.05C51.0901 50.51 51.4301 49.12 52.1101 47.88C52.8101 46.64 53.7601 45.68 54.9601 45C56.1801 44.3 57.5501 43.95 59.0701 43.95C60.5901 43.95 61.9401 44.3 63.1201 45C64.3201 45.68 65.2501 46.64 65.9101 47.88C66.5901 49.12 66.9301 50.54 66.9301 52.14ZM59.0701 46.38C57.6901 46.38 56.5301 46.8 55.5901 47.64C54.6701 48.48 54.1301 49.58 53.9701 50.94H64.1701C64.0101 49.6 63.4601 48.51 62.5201 47.67C61.6001 46.81 60.4501 46.38 59.0701 46.38Z" fill="black"/>
</svg>
