<svg width="83" height="14" viewBox="0 0 83 14" fill="none" xmlns="http://www.w3.org/2000/svg">
<path d="M1.76438 3.192V7.096H7.38038V8.472H1.76438V13H0.164375V1.8H8.06838V3.192H1.76438ZM12.8878 4.44C14.0611 4.44 14.9571 4.728 15.5758 5.304C16.2051 5.88 16.5198 6.73867 16.5198 7.88V13H15.0638V11.88C14.8078 12.2747 14.4398 12.5787 13.9598 12.792C13.4904 12.9947 12.9304 13.096 12.2798 13.096C11.3304 13.096 10.5678 12.8667 9.99175 12.408C9.42642 11.9493 9.14375 11.3467 9.14375 10.6C9.14375 9.85333 9.41575 9.256 9.95975 8.808C10.5038 8.34933 11.3678 8.12 12.5518 8.12H14.9838V7.816C14.9838 7.15467 14.7918 6.648 14.4078 6.296C14.0238 5.944 13.4584 5.768 12.7118 5.768C12.2104 5.768 11.7198 5.85333 11.2398 6.024C10.7598 6.184 10.3544 6.40267 10.0238 6.68L9.38375 5.528C9.82108 5.176 10.3438 4.90933 10.9518 4.728C11.5598 4.536 12.2051 4.44 12.8878 4.44ZM12.5358 11.912C13.1224 11.912 13.6291 11.784 14.0558 11.528C14.4824 11.2613 14.7918 10.888 14.9838 10.408V9.224H12.6158C11.3144 9.224 10.6638 9.66133 10.6638 10.536C10.6638 10.9627 10.8291 11.2987 11.1598 11.544C11.4904 11.7893 11.9491 11.912 12.5358 11.912ZM26.71 4.52L22.998 13H21.43L17.718 4.52H19.318L22.23 11.32L25.206 4.52H26.71ZM31.5411 13.096C30.6985 13.096 29.9411 12.9093 29.2691 12.536C28.5971 12.1627 28.0691 11.6507 27.6851 11C27.3118 10.3387 27.1251 9.592 27.1251 8.76C27.1251 7.928 27.3118 7.18667 27.6851 6.536C28.0691 5.87467 28.5971 5.36267 29.2691 5C29.9411 4.62667 30.6985 4.44 31.5411 4.44C32.3838 4.44 33.1358 4.62667 33.7971 5C34.4691 5.36267 34.9918 5.87467 35.3651 6.536C35.7491 7.18667 35.9411 7.928 35.9411 8.76C35.9411 9.592 35.7491 10.3387 35.3651 11C34.9918 11.6507 34.4691 12.1627 33.7971 12.536C33.1358 12.9093 32.3838 13.096 31.5411 13.096ZM31.5411 11.752C32.0851 11.752 32.5705 11.6293 32.9971 11.384C33.4345 11.128 33.7758 10.776 34.0211 10.328C34.2665 9.86933 34.3891 9.34667 34.3891 8.76C34.3891 8.17333 34.2665 7.656 34.0211 7.208C33.7758 6.74933 33.4345 6.39733 32.9971 6.152C32.5705 5.90667 32.0851 5.784 31.5411 5.784C30.9971 5.784 30.5065 5.90667 30.0691 6.152C29.6425 6.39733 29.3011 6.74933 29.0451 7.208C28.7998 7.656 28.6771 8.17333 28.6771 8.76C28.6771 9.34667 28.7998 9.86933 29.0451 10.328C29.3011 10.776 29.6425 11.128 30.0691 11.384C30.5065 11.6293 30.9971 11.752 31.5411 11.752ZM45.9694 4.52V13H44.5134V11.72C44.204 12.1573 43.7934 12.4987 43.2814 12.744C42.78 12.9787 42.2307 13.096 41.6334 13.096C40.5027 13.096 39.612 12.7867 38.9614 12.168C38.3107 11.5387 37.9854 10.616 37.9854 9.4V4.52H39.5214V9.224C39.5214 10.0453 39.7187 10.6693 40.1134 11.096C40.508 11.512 41.0734 11.72 41.8094 11.72C42.62 11.72 43.26 11.4747 43.7294 10.984C44.1987 10.4933 44.4334 9.8 44.4334 8.904V4.52H45.9694ZM50.3655 5.944C50.6322 5.45333 51.0268 5.08 51.5495 4.824C52.0722 4.568 52.7068 4.44 53.4535 4.44V5.928C53.3682 5.91733 53.2508 5.912 53.1015 5.912C52.2695 5.912 51.6135 6.16267 51.1335 6.664C50.6642 7.15467 50.4295 7.85867 50.4295 8.776V13H48.8935V4.52H50.3655V5.944ZM55.3466 4.52H56.8826V13H55.3466V4.52ZM56.1146 2.888C55.816 2.888 55.5653 2.792 55.3626 2.6C55.1706 2.408 55.0746 2.17333 55.0746 1.896C55.0746 1.61867 55.1706 1.384 55.3626 1.192C55.5653 0.989333 55.816 0.888 56.1146 0.888C56.4133 0.888 56.6586 0.984 56.8506 1.176C57.0533 1.35733 57.1546 1.58667 57.1546 1.864C57.1546 2.152 57.0533 2.39733 56.8506 2.6C56.6586 2.792 56.4133 2.888 56.1146 2.888ZM64.5834 12.504C64.3594 12.696 64.082 12.8453 63.7514 12.952C63.4207 13.048 63.0794 13.096 62.7274 13.096C61.874 13.096 61.2127 12.8667 60.7434 12.408C60.274 11.9493 60.0394 11.2933 60.0394 10.44V5.784H58.5994V4.52H60.0394V2.664H61.5754V4.52H64.0074V5.784H61.5754V10.376C61.5754 10.8347 61.6874 11.1867 61.9114 11.432C62.146 11.6773 62.4767 11.8 62.9034 11.8C63.3727 11.8 63.7727 11.6667 64.1034 11.4L64.5834 12.504ZM73.8231 8.808C73.8231 8.92533 73.8125 9.08 73.7911 9.272H66.9111C67.0071 10.0187 67.3325 10.6213 67.8871 11.08C68.4525 11.528 69.1511 11.752 69.9831 11.752C70.9965 11.752 71.8125 11.4107 72.4311 10.728L73.2791 11.72C72.8951 12.168 72.4151 12.5093 71.8391 12.744C71.2738 12.9787 70.6391 13.096 69.9351 13.096C69.0391 13.096 68.2445 12.9147 67.5511 12.552C66.8578 12.1787 66.3191 11.6613 65.9351 11C65.5618 10.3387 65.3751 9.592 65.3751 8.76C65.3751 7.93867 65.5565 7.19733 65.9191 6.536C66.2925 5.87467 66.7991 5.36267 67.4391 5C68.0898 4.62667 68.8205 4.44 69.6311 4.44C70.4418 4.44 71.1618 4.62667 71.7911 5C72.4311 5.36267 72.9271 5.87467 73.2791 6.536C73.6418 7.19733 73.8231 7.95467 73.8231 8.808ZM69.6311 5.736C68.8951 5.736 68.2765 5.96 67.7751 6.408C67.2845 6.856 66.9965 7.44267 66.9111 8.168H72.3511C72.2658 7.45333 71.9725 6.872 71.4711 6.424C70.9805 5.96533 70.3671 5.736 69.6311 5.736ZM78.388 13.096C77.6947 13.096 77.028 13.0053 76.388 12.824C75.748 12.632 75.2467 12.392 74.884 12.104L75.524 10.888C75.8973 11.1547 76.3507 11.368 76.884 11.528C77.4173 11.688 77.956 11.768 78.5 11.768C79.844 11.768 80.516 11.384 80.516 10.616C80.516 10.36 80.4253 10.1573 80.244 10.008C80.0627 9.85867 79.8333 9.752 79.556 9.688C79.2893 9.61333 78.9053 9.53333 78.404 9.448C77.7213 9.34133 77.1613 9.21867 76.724 9.08C76.2973 8.94133 75.9293 8.70667 75.62 8.376C75.3107 8.04533 75.156 7.58133 75.156 6.984C75.156 6.216 75.476 5.60267 76.116 5.144C76.756 4.67467 77.6147 4.44 78.692 4.44C79.2573 4.44 79.8227 4.50933 80.388 4.648C80.9533 4.78667 81.4173 4.97333 81.78 5.208L81.124 6.424C80.4307 5.976 79.6147 5.752 78.676 5.752C78.0253 5.752 77.5293 5.85867 77.188 6.072C76.8467 6.28533 76.676 6.568 76.676 6.92C76.676 7.19733 76.772 7.416 76.964 7.576C77.156 7.736 77.3907 7.85333 77.668 7.928C77.956 8.00267 78.356 8.088 78.868 8.184C79.5507 8.30133 80.1 8.42933 80.516 8.568C80.9427 8.696 81.3053 8.92 81.604 9.24C81.9027 9.56 82.052 10.008 82.052 10.584C82.052 11.352 81.7213 11.9653 81.06 12.424C80.4093 12.872 79.5187 13.096 78.388 13.096Z" fill="#BBBBBB"/>
</svg>
