<svg width="90" height="16" viewBox="0 0 90 16" fill="none" xmlns="http://www.w3.org/2000/svg">
<path d="M13.3957 14.024C13.033 14.4507 12.6117 14.776 12.1317 15C11.6517 15.224 11.1344 15.336 10.5797 15.336C9.87569 15.336 9.21435 15.1653 8.59569 14.824C7.98769 14.4933 7.28902 13.9227 6.49969 13.112C5.44369 13.0587 4.48902 12.776 3.63569 12.264C2.79302 11.752 2.13169 11.0747 1.65169 10.232C1.18235 9.37867 0.947688 8.43467 0.947688 7.4C0.947688 6.32267 1.20369 5.34667 1.71569 4.472C2.23835 3.59733 2.95302 2.91467 3.85969 2.424C4.76635 1.92267 5.78502 1.672 6.91569 1.672C8.03569 1.672 9.04902 1.92267 9.95569 2.424C10.8624 2.91467 11.5717 3.59733 12.0837 4.472C12.5957 5.336 12.8517 6.312 12.8517 7.4C12.8517 8.31733 12.665 9.16 12.2917 9.928C11.929 10.696 11.4117 11.3413 10.7397 11.864C10.0784 12.3867 9.31569 12.7493 8.45169 12.952C8.82502 13.3467 9.18235 13.6293 9.52369 13.8C9.87569 13.9813 10.233 14.072 10.5957 14.072C11.385 14.072 12.0677 13.752 12.6437 13.112L13.3957 14.024ZM2.54769 7.4C2.54769 8.21067 2.73435 8.94667 3.10769 9.608C3.49169 10.2587 4.01435 10.7707 4.67569 11.144C5.34769 11.5173 6.09435 11.704 6.91569 11.704C7.72635 11.704 8.46235 11.5173 9.12369 11.144C9.78502 10.7707 10.3024 10.2587 10.6757 9.608C11.0597 8.94667 11.2517 8.21067 11.2517 7.4C11.2517 6.58933 11.0597 5.85867 10.6757 5.208C10.3024 4.54667 9.78502 4.02933 9.12369 3.656C8.46235 3.28267 7.72635 3.096 6.91569 3.096C6.09435 3.096 5.34769 3.28267 4.67569 3.656C4.01435 4.02933 3.49169 4.54667 3.10769 5.208C2.73435 5.85867 2.54769 6.58933 2.54769 7.4ZM22.9772 4.52V13H21.5212V11.72C21.2119 12.1573 20.8012 12.4987 20.2892 12.744C19.7879 12.9787 19.2385 13.096 18.6412 13.096C17.5105 13.096 16.6199 12.7867 15.9692 12.168C15.3185 11.5387 14.9932 10.616 14.9932 9.4V4.52H16.5292V9.224C16.5292 10.0453 16.7265 10.6693 17.1212 11.096C17.5159 11.512 18.0812 11.72 18.8172 11.72C19.6279 11.72 20.2679 11.4747 20.7372 10.984C21.2065 10.4933 21.4412 9.8 21.4412 8.904V4.52H22.9772ZM25.9013 4.52H27.4373V13H25.9013V4.52ZM26.6693 2.888C26.3706 2.888 26.12 2.792 25.9173 2.6C25.7253 2.408 25.6293 2.17333 25.6293 1.896C25.6293 1.61867 25.7253 1.384 25.9173 1.192C26.12 0.989333 26.3706 0.888 26.6693 0.888C26.968 0.888 27.2133 0.984 27.4053 1.176C27.608 1.35733 27.7093 1.58667 27.7093 1.864C27.7093 2.152 27.608 2.39733 27.4053 2.6C27.2133 2.792 26.968 2.888 26.6693 2.888ZM34.0661 13.096C33.2021 13.096 32.4287 12.9093 31.7461 12.536C31.0741 12.1627 30.5461 11.6507 30.1621 11C29.7781 10.3387 29.5861 9.592 29.5861 8.76C29.5861 7.928 29.7781 7.18667 30.1621 6.536C30.5461 5.87467 31.0741 5.36267 31.7461 5C32.4287 4.62667 33.2021 4.44 34.0661 4.44C34.8341 4.44 35.5167 4.59467 36.1141 4.904C36.7221 5.21333 37.1914 5.66133 37.5221 6.248L36.3541 7C36.0874 6.59467 35.7567 6.29067 35.3621 6.088C34.9674 5.88533 34.5301 5.784 34.0501 5.784C33.4954 5.784 32.9941 5.90667 32.5461 6.152C32.1087 6.39733 31.7621 6.74933 31.5061 7.208C31.2607 7.656 31.1381 8.17333 31.1381 8.76C31.1381 9.35733 31.2607 9.88533 31.5061 10.344C31.7621 10.792 32.1087 11.1387 32.5461 11.384C32.9941 11.6293 33.4954 11.752 34.0501 11.752C34.5301 11.752 34.9674 11.6507 35.3621 11.448C35.7567 11.2453 36.0874 10.9413 36.3541 10.536L37.5221 11.272C37.1914 11.8587 36.7221 12.312 36.1141 12.632C35.5167 12.9413 34.8341 13.096 34.0661 13.096ZM42.6973 9.048L40.9373 10.68V13H39.4013V1.128H40.9373V8.744L45.5613 4.52H47.4173L43.8493 8.024L47.7693 13H45.8813L42.6973 9.048ZM48.3417 7.944H52.6457V9.272H48.3417V7.944ZM58.8629 13.096C57.9989 13.096 57.2256 12.9093 56.5429 12.536C55.8709 12.1627 55.3429 11.6507 54.9589 11C54.5749 10.3387 54.3829 9.592 54.3829 8.76C54.3829 7.928 54.5749 7.18667 54.9589 6.536C55.3429 5.87467 55.8709 5.36267 56.5429 5C57.2256 4.62667 57.9989 4.44 58.8629 4.44C59.6309 4.44 60.3136 4.59467 60.9109 4.904C61.5189 5.21333 61.9883 5.66133 62.3189 6.248L61.1509 7C60.8843 6.59467 60.5536 6.29067 60.1589 6.088C59.7643 5.88533 59.3269 5.784 58.8469 5.784C58.2923 5.784 57.7909 5.90667 57.3429 6.152C56.9056 6.39733 56.5589 6.74933 56.3029 7.208C56.0576 7.656 55.9349 8.17333 55.9349 8.76C55.9349 9.35733 56.0576 9.88533 56.3029 10.344C56.5589 10.792 56.9056 11.1387 57.3429 11.384C57.7909 11.6293 58.2923 11.752 58.8469 11.752C59.3269 11.752 59.7643 11.6507 60.1589 11.448C60.5536 11.2453 60.8843 10.9413 61.1509 10.536L62.3189 11.272C61.9883 11.8587 61.5189 12.312 60.9109 12.632C60.3136 12.9413 59.6309 13.096 58.8629 13.096ZM68.7262 4.44C69.8035 4.44 70.6569 4.75467 71.2862 5.384C71.9262 6.00267 72.2462 6.91467 72.2462 8.12V13H70.7102V8.296C70.7102 7.47467 70.5129 6.856 70.1182 6.44C69.7235 6.024 69.1582 5.816 68.4222 5.816C67.5902 5.816 66.9342 6.06133 66.4542 6.552C65.9742 7.032 65.7342 7.72533 65.7342 8.632V13H64.1982V1.128H65.7342V5.72C66.0542 5.31467 66.4702 5 66.9822 4.776C67.5049 4.552 68.0862 4.44 68.7262 4.44ZM78.1768 4.44C79.3501 4.44 80.2461 4.728 80.8648 5.304C81.4941 5.88 81.8088 6.73867 81.8088 7.88V13H80.3528V11.88C80.0968 12.2747 79.7288 12.5787 79.2488 12.792C78.7795 12.9947 78.2195 13.096 77.5688 13.096C76.6195 13.096 75.8568 12.8667 75.2808 12.408C74.7155 11.9493 74.4328 11.3467 74.4328 10.6C74.4328 9.85333 74.7048 9.256 75.2488 8.808C75.7928 8.34933 76.6568 8.12 77.8408 8.12H80.2728V7.816C80.2728 7.15467 80.0808 6.648 79.6968 6.296C79.3128 5.944 78.7475 5.768 78.0008 5.768C77.4995 5.768 77.0088 5.85333 76.5288 6.024C76.0488 6.184 75.6435 6.40267 75.3128 6.68L74.6728 5.528C75.1101 5.176 75.6328 4.90933 76.2408 4.728C76.8488 4.536 77.4941 4.44 78.1768 4.44ZM77.8248 11.912C78.4115 11.912 78.9181 11.784 79.3448 11.528C79.7715 11.2613 80.0808 10.888 80.2728 10.408V9.224H77.9048C76.6035 9.224 75.9528 9.66133 75.9528 10.536C75.9528 10.9627 76.1181 11.2987 76.4488 11.544C76.7795 11.7893 77.2381 11.912 77.8248 11.912ZM89.4193 12.504C89.1953 12.696 88.918 12.8453 88.5873 12.952C88.2566 13.048 87.9153 13.096 87.5633 13.096C86.71 13.096 86.0486 12.8667 85.5793 12.408C85.11 11.9493 84.8753 11.2933 84.8753 10.44V5.784H83.4353V4.52H84.8753V2.664H86.4113V4.52H88.8433V5.784H86.4113V10.376C86.4113 10.8347 86.5233 11.1867 86.7473 11.432C86.982 11.6773 87.3126 11.8 87.7393 11.8C88.2086 11.8 88.6086 11.6667 88.9393 11.4L89.4193 12.504Z" fill="#BBBBBB"/>
</svg>
